# xmcd CD database file
#
# Track frame offsets:
#	150
#	18777
#	33737
#	55552
#	66007
#	89977
#	105060
#	126830
#	172212
#	189975
#	210580
#	222517
#
# Disc length: 3241 seconds
#
# Revision: 0
# Processed by: cddbd v1.5PL3 Copyright (c) Steve Scherf et al.
# Submitted via: CDex 1.50beta10
#
DISCID=a70ca70c
DTITLE=Kelly Simonz - Memories Of The Past
DYEAR=1900
DGENRE=Hard Rock
TTITLE0=Eternal Flame
TTITLE1=SpellBound
TTITLE2=Never Say Goodbye
TTITLE3=Without Warning
TTITLE4=Requiem
TTITLE5=Fire In My Soul
TTITLE6=Find A Way
TTITLE7=Eternal Suite
TTITLE8=Blind
TTITLE9=Save Our Souls
TTITLE10=Pain
TTITLE11=Stay In My Heart
EXTD=
EXTT0=
EXTT1=
EXTT2=
EXTT3=
EXTT4=
EXTT5=
EXTT6=
EXTT7=
EXTT8=
EXTT9=
EXTT10=
EXTT11=
PLAYORDER=
